<svg width="22" height="26" viewBox="0 0 22 26" fill="none" xmlns="http://www.w3.org/2000/svg">
<path fill-rule="evenodd" clip-rule="evenodd" d="M13.7076 0.293753C13.8007 0.386634 13.8745 0.496972 13.9249 0.618448C13.9754 0.739924 14.0013 0.870151 14.0013 1.00167C14.0013 1.13319 13.9754 1.26342 13.9249 1.38489C13.8745 1.50637 13.8007 1.61671 13.7076 1.70959L2.4154 13.0003L13.7076 24.2909C13.8953 24.4787 14.0008 24.7333 14.0008 24.9989C14.0008 25.2644 13.8953 25.519 13.7076 25.7068C13.5198 25.8945 13.2652 26 12.9997 26C12.7342 26 12.4795 25.8945 12.2918 25.7068L0.29374 13.7082C0.200629 13.6153 0.126755 13.505 0.0763502 13.3835C0.0259455 13.262 0 13.1318 0 13.0003C0 12.8687 0.0259455 12.7385 0.0763502 12.617C0.126755 12.4956 0.200629 12.3852 0.29374 12.2923L12.2918 0.293753C12.3847 0.200638 12.495 0.126761 12.6165 0.0763537C12.7379 0.0259467 12.8682 0 12.9997 0C13.1312 0 13.2614 0.0259467 13.3829 0.0763537C13.5044 0.126761 13.6147 0.200638 13.7076 0.293753Z" fill="black"/>
<path fill-rule="evenodd" clip-rule="evenodd" d="M21.7076 0.293753C21.8007 0.386634 21.8745 0.496972 21.9249 0.618448C21.9754 0.739924 22.0013 0.870151 22.0013 1.00167C22.0013 1.13319 21.9754 1.26342 21.9249 1.38489C21.8745 1.50637 21.8007 1.61671 21.7076 1.70959L10.4154 13.0003L21.7076 24.2909C21.8005 24.3839 21.8743 24.4943 21.9246 24.6157C21.9749 24.7372 22.0008 24.8674 22.0008 24.9989C22.0008 25.1303 21.9749 25.2605 21.9246 25.382C21.8743 25.5034 21.8005 25.6138 21.7076 25.7068C21.6146 25.7997 21.5042 25.8735 21.3828 25.9238C21.2613 25.9741 21.1311 26 20.9997 26C20.8682 26 20.738 25.9741 20.6166 25.9238C20.4951 25.8735 20.3848 25.7997 20.2918 25.7068L8.29374 13.7082C8.20063 13.6153 8.12675 13.505 8.07635 13.3835C8.02594 13.262 8 13.1318 8 13.0003C8 12.8687 8.02594 12.7385 8.07635 12.617C8.12675 12.4956 8.20063 12.3852 8.29374 12.2923L20.2918 0.293753C20.3847 0.200638 20.495 0.126761 20.6165 0.0763537C20.7379 0.0259467 20.8682 0 20.9997 0C21.1312 0 21.2614 0.0259467 21.3829 0.0763537C21.5044 0.126761 21.6147 0.200638 21.7076 0.293753Z" fill="black"/>
</svg>
