<svg width="30" height="30" viewBox="0 0 16 16" fill="none" xmlns="http://www.w3.org/2000/svg">
<path fill-rule="evenodd" clip-rule="evenodd" d="M8.35489 1.64604C8.40146 1.69249 8.4384 1.74766 8.46361 1.80841C8.48881 1.86915 8.50179 1.93427 8.50179 2.00004C8.50179 2.06581 8.48881 2.13093 8.46361 2.19167C8.4384 2.25242 8.40146 2.30759 8.35489 2.35404L2.70789 8.00004L8.35489 13.646C8.44878 13.7399 8.50152 13.8673 8.50152 14C8.50152 14.1328 8.44878 14.2602 8.35489 14.354C8.26101 14.4479 8.13367 14.5007 8.00089 14.5007C7.86812 14.5007 7.74078 14.4479 7.64689 14.354L1.64689 8.35404C1.60033 8.30759 1.56339 8.25242 1.53818 8.19167C1.51297 8.13093 1.5 8.06581 1.5 8.00004C1.5 7.93427 1.51297 7.86915 1.53818 7.80841C1.56339 7.74766 1.60033 7.69248 1.64689 7.64604L7.64689 1.64604C7.69334 1.59948 7.74852 1.56253 7.80926 1.53733C7.87001 1.51212 7.93513 1.49915 8.00089 1.49915C8.06666 1.49915 8.13178 1.51212 8.19253 1.53733C8.25327 1.56253 8.30845 1.59948 8.35489 1.64604Z" fill="black"/>
<path fill-rule="evenodd" clip-rule="evenodd" d="M12.3549 1.64604C12.4015 1.69249 12.4384 1.74766 12.4636 1.80841C12.4888 1.86915 12.5018 1.93427 12.5018 2.00004C12.5018 2.06581 12.4888 2.13093 12.4636 2.19167C12.4384 2.25242 12.4015 2.30759 12.3549 2.35404L6.70789 8.00004L12.3549 13.646C12.4014 13.6925 12.4383 13.7477 12.4634 13.8085C12.4886 13.8692 12.5015 13.9343 12.5015 14C12.5015 14.0658 12.4886 14.1309 12.4634 14.1916C12.4383 14.2524 12.4014 14.3076 12.3549 14.354C12.3084 14.4005 12.2532 14.4374 12.1925 14.4626C12.1317 14.4877 12.0666 14.5007 12.0009 14.5007C11.9351 14.5007 11.87 14.4877 11.8093 14.4626C11.7486 14.4374 11.6934 14.4005 11.6469 14.354L5.64689 8.35404C5.60033 8.30759 5.56339 8.25242 5.53818 8.19167C5.51297 8.13093 5.5 8.06581 5.5 8.00004C5.5 7.93427 5.51297 7.86915 5.53818 7.80841C5.56339 7.74766 5.60033 7.69248 5.64689 7.64604L11.6469 1.64604C11.6933 1.59948 11.7485 1.56253 11.8093 1.53733C11.87 1.51212 11.9351 1.49915 12.0009 1.49915C12.0667 1.49915 12.1318 1.51212 12.1925 1.53733C12.2533 1.56253 12.3084 1.59948 12.3549 1.64604Z" fill="black"/>
</svg>
