<svg width="30" height="30" viewBox="0 0 30 30" fill="none" xmlns="http://www.w3.org/2000/svg">
<path fill-rule="evenodd" clip-rule="evenodd" d="M6.83793 3.08622C6.92501 2.99891 7.02847 2.92964 7.14236 2.88238C7.25626 2.83512 7.37836 2.81079 7.50168 2.81079C7.62499 2.81079 7.74709 2.83512 7.86099 2.88238C7.97489 2.92964 8.07834 2.99891 8.16543 3.08622L19.4154 14.3362C19.5027 14.4233 19.572 14.5268 19.6193 14.6407C19.6665 14.7546 19.6909 14.8767 19.6909 15C19.6909 15.1233 19.6665 15.2454 19.6193 15.3593C19.572 15.4732 19.5027 15.5766 19.4154 15.6637L8.16543 26.9137C7.98939 27.0898 7.75063 27.1887 7.50168 27.1887C7.25272 27.1887 7.01396 27.0898 6.83793 26.9137C6.66189 26.7377 6.56299 26.4989 6.56299 26.25C6.56299 26.001 6.66189 25.7623 6.83793 25.5862L17.4261 15L6.83793 4.41372C6.75062 4.32663 6.68135 4.22318 6.63409 4.10928C6.58683 3.99538 6.5625 3.87328 6.5625 3.74997C6.5625 3.62665 6.58683 3.50455 6.63409 3.39065C6.68135 3.27676 6.75062 3.1733 6.83793 3.08622Z" fill="white"/>
<path fill-rule="evenodd" clip-rule="evenodd" d="M14.3379 3.08622C14.425 2.99891 14.5285 2.92964 14.6424 2.88238C14.7563 2.83512 14.8784 2.81079 15.0017 2.81079C15.125 2.81079 15.2471 2.83512 15.361 2.88238C15.4749 2.92964 15.5783 2.99891 15.6654 3.08622L26.9154 14.3362C27.0027 14.4233 27.072 14.5268 27.1193 14.6407C27.1665 14.7546 27.1909 14.8767 27.1909 15C27.1909 15.1233 27.1665 15.2454 27.1193 15.3593C27.072 15.4732 27.0027 15.5766 26.9154 15.6637L15.6654 26.9137C15.4894 27.0898 15.2506 27.1887 15.0017 27.1887C14.7527 27.1887 14.514 27.0898 14.3379 26.9137C14.1619 26.7377 14.063 26.4989 14.063 26.25C14.063 26.001 14.1619 25.7623 14.3379 25.5862L24.9261 15L14.3379 4.41372C14.2506 4.32663 14.1814 4.22318 14.1341 4.10928C14.0868 3.99538 14.0625 3.87328 14.0625 3.74997C14.0625 3.62665 14.0868 3.50455 14.1341 3.39065C14.1814 3.27676 14.2506 3.1733 14.3379 3.08622Z" fill="white"/>
</svg>
